<?xml version="1.0" encoding="UTF-8" standalone="no"?>
<svg
   version="1.1"
   width="100"
   height="100"
   x="0"
   y="0"
   viewBox="0 0 99.999999 100"
   xml:space="preserve"
   class=""
   id="svg29"
   sodipodi:docname="convert.svg"
   inkscape:version="1.2.2 (1:1.2.2+202212051551+b0a8486541)"
   xmlns:inkscape="http://www.inkscape.org/namespaces/inkscape"
   xmlns:sodipodi="http://sodipodi.sourceforge.net/DTD/sodipodi-0.dtd"
   xmlns="http://www.w3.org/2000/svg"
   xmlns:svg="http://www.w3.org/2000/svg"><defs
     id="defs33" /><sodipodi:namedview
     id="namedview31"
     pagecolor="#ffffff"
     bordercolor="#000000"
     borderopacity="0.25"
     inkscape:showpageshadow="2"
     inkscape:pageopacity="0.0"
     inkscape:pagecheckerboard="0"
     inkscape:deskcolor="#d1d1d1"
     showgrid="false"
     inkscape:zoom="1.609375"
     inkscape:cx="246.05825"
     inkscape:cy="67.728155"
     inkscape:window-width="1850"
     inkscape:window-height="1027"
     inkscape:window-x="1350"
     inkscape:window-y="27"
     inkscape:window-maximized="1"
     inkscape:current-layer="g27" /><g
     id="g27"
     transform="translate(0,-5.3985291)"><path
       d="m 100.0003,77.210587 a 6.250002,6.3846752 0 0 1 -6.250002,6.384675 H 21.339142 l 10.675394,10.905425 a 6.250094,6.3847692 0 0 1 -8.83887,9.029523 L 1.8309322,81.725351 a 6.250002,6.3846752 0 0 1 0,-9.029328 L 23.175666,50.890761 a 6.250094,6.3847692 0 1 1 8.83887,9.029527 L 21.339142,70.825513 h 72.411156 a 6.250002,6.3846752 0 0 1 6.250002,6.385074 z M 76.824902,7.2696628 A 6.2500941,6.3847693 0 0 0 67.986032,16.29919 L 78.661426,27.204614 H 6.2502695 a 6.250002,6.3846752 0 0 0 0,12.76935 H 78.661426 L 67.986032,50.879189 a 6.2502322,6.3849102 0 0 0 8.83887,9.029926 L 98.169635,38.104053 a 6.250002,6.3846752 0 0 0 0,-9.029527 z"
       fill="#ffffff"
       data-original="#000000"
       class=""
       id="path25"
       style="stroke-width:0.197406" /></g></svg>
